<mxfile host="app.diagrams.net" modified="2021-10-17T15:09:48.713Z" agent="5.0 (Macintosh; Intel Mac OS X 10_13_6) AppleWebKit/537.36 (KHTML, like Gecko) Chrome/94.0.4606.71 Safari/537.36" etag="BPL8RXnHKRe_9DRImU8N" version="15.5.4" type="github">
  <diagram id="uH_51Rfj-A5eZMWU7O3p" name="Page-1">
    <mxGraphModel dx="946" dy="627" grid="1" gridSize="10" guides="1" tooltips="1" connect="1" arrows="1" fold="1" page="1" pageScale="1" pageWidth="850" pageHeight="1100" math="0" shadow="0">
      <root>
        <mxCell id="0" />
        <mxCell id="1" parent="0" />
        <mxCell id="TK647VNuSUguSgHXitt7-1" value="" style="rounded=0;whiteSpace=wrap;html=1;" parent="1" vertex="1">
          <mxGeometry x="40" y="40" width="310" height="410" as="geometry" />
        </mxCell>
        <mxCell id="TK647VNuSUguSgHXitt7-2" value="" style="rounded=0;whiteSpace=wrap;html=1;" parent="1" vertex="1">
          <mxGeometry x="40" y="40" width="310" height="60" as="geometry" />
        </mxCell>
        <mxCell id="TK647VNuSUguSgHXitt7-3" value="CitizenScientist" style="text;html=1;strokeColor=none;fillColor=none;align=center;verticalAlign=middle;whiteSpace=wrap;rounded=0;" parent="1" vertex="1">
          <mxGeometry x="60" y="40" width="60" height="30" as="geometry" />
        </mxCell>
        <mxCell id="TK647VNuSUguSgHXitt7-7" value="Identification" style="rounded=0;whiteSpace=wrap;html=1;" parent="1" vertex="1">
          <mxGeometry x="50" y="70" width="100" height="20" as="geometry" />
        </mxCell>
        <mxCell id="TK647VNuSUguSgHXitt7-8" value="Groups" style="rounded=0;whiteSpace=wrap;html=1;" parent="1" vertex="1">
          <mxGeometry x="230" y="70" width="60" height="20" as="geometry" />
        </mxCell>
        <mxCell id="TK647VNuSUguSgHXitt7-9" value="Search" style="rounded=0;whiteSpace=wrap;html=1;" parent="1" vertex="1">
          <mxGeometry x="160" y="70" width="60" height="20" as="geometry" />
        </mxCell>
        <mxCell id="TK647VNuSUguSgHXitt7-10" value="" style="whiteSpace=wrap;html=1;aspect=fixed;" parent="1" vertex="1">
          <mxGeometry x="65" y="120" width="260" height="260" as="geometry" />
        </mxCell>
        <mxCell id="TK647VNuSUguSgHXitt7-13" value="" style="ellipse;whiteSpace=wrap;html=1;aspect=fixed;" parent="1" vertex="1">
          <mxGeometry x="155" y="290" width="80" height="80" as="geometry" />
        </mxCell>
        <mxCell id="TK647VNuSUguSgHXitt7-12" value="" style="shape=mxgraph.signs.tech.video_camera;html=1;pointerEvents=1;fillColor=#000000;strokeColor=none;verticalLabelPosition=bottom;verticalAlign=top;align=center;" parent="1" vertex="1">
          <mxGeometry x="170" y="312.5" width="50" height="35" as="geometry" />
        </mxCell>
        <mxCell id="TK647VNuSUguSgHXitt7-14" value="" style="ellipse;whiteSpace=wrap;html=1;aspect=fixed;" parent="1" vertex="1">
          <mxGeometry x="375" y="230" width="80" height="80" as="geometry" />
        </mxCell>
        <mxCell id="TK647VNuSUguSgHXitt7-11" value="" style="shape=mxgraph.signs.tech.camera_2;html=1;pointerEvents=1;fillColor=#000000;strokeColor=none;verticalLabelPosition=bottom;verticalAlign=top;align=center;" parent="1" vertex="1">
          <mxGeometry x="385.5" y="248" width="59" height="42" as="geometry" />
        </mxCell>
        <mxCell id="TK647VNuSUguSgHXitt7-15" value="" style="shape=image;html=1;verticalAlign=top;verticalLabelPosition=bottom;labelBackgroundColor=#ffffff;imageAspect=0;aspect=fixed;image=https://cdn4.iconfinder.com/data/icons/48-bubbles/48/30.User-128.png" parent="1" vertex="1">
          <mxGeometry x="300" y="52" width="38" height="38" as="geometry" />
        </mxCell>
        <mxCell id="TK647VNuSUguSgHXitt7-16" value="Plant Info: Common/Latin Name, Region, Requirements, Etc" style="rounded=0;whiteSpace=wrap;html=1;" parent="1" vertex="1">
          <mxGeometry x="110" y="390" width="170" height="40" as="geometry" />
        </mxCell>
        <mxCell id="TK647VNuSUguSgHXitt7-18" value="" style="shape=image;html=1;verticalAlign=top;verticalLabelPosition=bottom;labelBackgroundColor=#ffffff;imageAspect=0;aspect=fixed;image=https://cdn3.iconfinder.com/data/icons/spring-2-1/30/Leaf-128.png" parent="1" vertex="1">
          <mxGeometry x="126" y="150" width="128" height="128" as="geometry" />
        </mxCell>
        <mxCell id="TK647VNuSUguSgHXitt7-20" value="" style="endArrow=classic;html=1;rounded=0;edgeStyle=orthogonalEdgeStyle;" parent="1" source="TK647VNuSUguSgHXitt7-13" target="TK647VNuSUguSgHXitt7-14" edge="1">
          <mxGeometry width="50" height="50" relative="1" as="geometry">
            <mxPoint x="460" y="310" as="sourcePoint" />
            <mxPoint x="510" y="260" as="targetPoint" />
          </mxGeometry>
        </mxCell>
        <mxCell id="TK647VNuSUguSgHXitt7-21" value="Photo/Video Capture Modes" style="text;html=1;strokeColor=none;fillColor=none;align=center;verticalAlign=middle;whiteSpace=wrap;rounded=0;" parent="1" vertex="1">
          <mxGeometry x="370" y="315" width="60" height="30" as="geometry" />
        </mxCell>
        <mxCell id="TK647VNuSUguSgHXitt7-22" value="Login/Settings" style="text;html=1;strokeColor=none;fillColor=none;align=center;verticalAlign=middle;whiteSpace=wrap;rounded=0;" parent="1" vertex="1">
          <mxGeometry x="410" y="52" width="60" height="30" as="geometry" />
        </mxCell>
        <mxCell id="TK647VNuSUguSgHXitt7-23" value="" style="endArrow=classic;html=1;rounded=0;edgeStyle=orthogonalEdgeStyle;" parent="1" source="TK647VNuSUguSgHXitt7-15" edge="1">
          <mxGeometry width="50" height="50" relative="1" as="geometry">
            <mxPoint x="460" y="310" as="sourcePoint" />
            <mxPoint x="400" y="67" as="targetPoint" />
          </mxGeometry>
        </mxCell>
        <mxCell id="TK647VNuSUguSgHXitt7-24" value="" style="endArrow=classic;html=1;rounded=0;edgeStyle=orthogonalEdgeStyle;" parent="1" source="TK647VNuSUguSgHXitt7-10" edge="1">
          <mxGeometry width="50" height="50" relative="1" as="geometry">
            <mxPoint x="460" y="310" as="sourcePoint" />
            <mxPoint x="440" y="160" as="targetPoint" />
            <Array as="points">
              <mxPoint x="370" y="250" />
              <mxPoint x="370" y="160" />
            </Array>
          </mxGeometry>
        </mxCell>
        <mxCell id="TK647VNuSUguSgHXitt7-25" value="Viewport" style="text;html=1;strokeColor=none;fillColor=none;align=center;verticalAlign=middle;whiteSpace=wrap;rounded=0;" parent="1" vertex="1">
          <mxGeometry x="440" y="150" width="60" height="30" as="geometry" />
        </mxCell>
      </root>
    </mxGraphModel>
  </diagram>
</mxfile>
